<svg width="215" height="299" viewBox="0 0 215 299" fill="none" xmlns="http://www.w3.org/2000/svg">
<path fill-rule="evenodd" clip-rule="evenodd" d="M92.669 14.0562L78.6403 28.1124L92.9427 42.3882L107.246 56.6639L121.64 42.2697L136.035 27.8754L122.176 13.9377C114.555 6.27182 107.955 0 107.508 0C107.063 0 100.386 6.32493 92.669 14.0562ZM32.409 20.1871L21.4474 31.1834L33.1923 42.8947L44.9373 54.606V31.8994C44.9373 19.4099 44.5849 9.19173 44.154 9.19173C43.723 9.19173 38.4377 14.1399 32.409 20.1871ZM169.536 31.1497C169.536 43.2266 169.889 53.1077 170.32 53.1077C170.751 53.1077 176.143 48.0523 182.303 41.8734L193.501 30.6401L182.813 19.9154C176.936 14.0174 171.543 9.19173 170.831 9.19173C169.825 9.19173 169.536 14.0991 169.536 31.1497ZM0 85.098V106.874L7.84054 114.716C12.1535 119.028 15.8302 122.556 16.011 122.556C16.1928 122.556 16.3408 113.135 16.3408 101.62V80.6829H21.958H27.5752V145.412V210.141L35.8692 218.435C40.4313 222.996 44.3378 226.729 44.5502 226.729C44.7637 226.729 44.9373 189.962 44.9373 145.025V63.3208H22.4687H0V85.098ZM56.1717 113.259V163.197L63.9019 170.708C68.1536 174.838 72.06 178.371 72.5829 178.557C73.161 178.765 73.5338 159.656 73.5338 129.79V80.6829H79.151H84.7682V181.562V282.441L92.1971 289.82C96.2823 293.879 100.189 297.199 100.878 297.199C102.358 297.199 102.517 252.73 101.452 137.023L100.773 63.3208H78.4728H56.1717V113.259ZM113.365 181.002V298.683L121.535 290.561L129.705 282.438V204.705C129.705 161.952 130.009 116.556 130.38 103.828L131.053 80.6829H135.997H140.94V129.705C140.94 166.008 141.245 178.728 142.116 178.728C142.763 178.728 146.899 175.007 151.308 170.461L159.323 162.193V114.373C159.323 88.071 159.044 65.825 158.703 64.9365C158.164 63.5312 155.171 63.3208 135.724 63.3208H113.365V181.002ZM170.237 63.9816C169.263 64.9559 169.351 226.729 170.326 226.729C170.761 226.729 174.667 223.158 179.007 218.792L186.898 210.854V145.769V80.6829H192.005H197.111V102.13C197.111 113.926 197.467 123.578 197.901 123.578C198.336 123.578 202.252 119.996 206.603 115.619L214.516 107.661L214.239 85.7455L213.963 63.8314L192.45 63.5567C180.618 63.4056 170.622 63.5965 170.237 63.9816Z" fill="black"/>
</svg>
