<svg width="129" height="21" viewBox="0 0 129 21" fill="none" xmlns="http://www.w3.org/2000/svg">
<path d="M9.54297 4.45215C10.91 4.45215 11.1203 4.46663 11.1582 4.56543C11.1822 4.62817 11.2021 6.19201 11.2021 8.04102V11.4033L10.6387 11.9844C10.3288 12.304 10.0378 12.5653 9.99219 12.5654C9.93094 12.5654 9.90918 11.6715 9.90918 9.11914V5.67285H9.21387L9.16699 7.2998C9.14093 8.19482 9.11914 11.3868 9.11914 14.3926V19.8574L7.9707 21V4.45215H9.54297ZM7.13281 9.63379C7.2077 17.7685 7.19681 20.8952 7.09277 20.8955C7.04431 20.8955 6.76958 20.6622 6.48242 20.377L5.95996 19.8574V5.67285H5.16992V9.125C5.16992 11.2232 5.1441 12.5662 5.10352 12.5537C5.06675 12.5406 4.79207 12.2923 4.49316 12.002L3.94922 11.4736V4.45215H7.08496L7.13281 9.63379ZM3.15918 10.1963C3.15918 13.3337 3.14768 15.9046 3.13281 15.9404C3.11788 15.9404 2.84318 15.6781 2.52246 15.3574L1.93848 14.7744V5.67285H1.14941V7.14453C1.14941 7.94842 1.13863 8.60696 1.12598 8.61621C1.11327 8.61621 0.854885 8.36848 0.551758 8.06543L0 7.51367V4.45215H3.15918V10.1963ZM13.5312 4.46875L15.0439 4.4873L15.0625 6.02832L15.082 7.56934L14.5264 8.12891C14.2204 8.43667 13.9447 8.68848 13.9141 8.68848C13.8836 8.68527 13.8584 8.00794 13.8584 7.18066V5.67285H13.1406V14.8242L12.5859 15.3828C12.2811 15.6895 12.0065 15.9401 11.9756 15.9404C11.9071 15.9404 11.9012 4.56655 11.9697 4.49805C12.0017 4.47118 12.7025 4.45816 13.5312 4.46875ZM108.566 6.61719C108.663 6.52107 110.02 6.54842 110.021 6.64648C110.022 6.69548 110.023 8.45822 110.023 10.5635L110.024 14.3906L109.266 14.417L108.508 14.4424V10.5596C108.508 8.42918 108.534 6.65816 108.566 6.61719ZM128.072 6.55762L128.163 7.02246C128.213 7.27807 128.267 7.58728 128.281 7.70898L128.307 7.92969L126.636 7.9541L124.964 7.97754L124.989 8.92773L125.015 9.87695L127.915 9.92578L127.889 10.5205L127.862 11.1162L124.97 11.165V13.1074H128.448L128.39 13.4395C128.357 13.622 128.304 13.9107 128.271 14.0811L128.21 14.3906L125.834 14.4141L123.457 14.4385V10.5566C123.457 8.42449 123.484 6.65317 123.517 6.61719C123.549 6.5847 124.588 6.55762 125.824 6.55762H128.072ZM95.6934 6.55762V7.97363H93.291V14.4355H91.7773L91.7783 11.1826V7.92969L90.5762 7.95703L89.375 7.9834V6.55762H95.6934ZM100.855 6.57617C102.387 6.61148 102.538 6.6298 102.997 6.83887C103.269 6.96258 103.638 7.21399 103.817 7.39746C104.2 7.78983 104.503 8.53072 104.503 9.07617C104.503 9.76948 103.977 10.7111 103.387 11.0742L103.09 11.2568L104.029 12.5146C104.546 13.2061 105.086 13.921 105.229 14.1035L105.49 14.4355L104.574 14.4326C103.718 14.43 103.648 14.4159 103.507 14.2227C103.424 14.1088 102.956 13.4619 102.467 12.7852L101.578 11.5547L101.105 11.5703L100.632 11.5859L100.583 14.4355H99.0752V10.5557C99.0752 8.42422 99.1049 6.64918 99.1416 6.60742C99.1784 6.56963 99.9495 6.55529 100.855 6.57617ZM114.181 6.60742C114.3 6.49428 117.676 6.6135 118.073 6.74512C118.274 6.81173 118.625 7.05681 118.879 7.30762C119.404 7.82646 119.599 8.35344 119.509 9.00781C119.446 9.46054 119.092 10.1332 118.83 10.2959C118.675 10.3925 118.684 10.4131 118.966 10.6035C119.132 10.716 119.38 10.997 119.517 11.2275C119.726 11.5817 119.764 11.7444 119.761 12.2715C119.758 12.7879 119.715 12.9671 119.514 13.3086C119.38 13.5355 119.134 13.8257 118.966 13.9531C118.421 14.3661 117.989 14.4355 115.968 14.4355H114.113V10.5557C114.113 8.42181 114.144 6.64486 114.181 6.60742ZM79.4697 6.60547C80.2547 6.62623 80.5178 6.6769 81.1973 6.9375C81.5422 7.06976 81.6054 7.11258 81.6289 7.22949C81.6794 7.48135 81.7717 8.61318 81.7441 8.64062C81.7279 8.6544 81.6172 8.59931 81.4971 8.51758C80.9098 8.1181 80.2388 7.89866 79.4951 7.8623C78.859 7.83127 78.4987 7.89885 77.9688 8.15039C76.8806 8.66682 76.3305 10.0835 76.7148 11.377C76.8757 11.9182 77.3932 12.5607 77.8799 12.8232C78.5587 13.1892 79.5423 13.24 80.4639 12.957L80.7881 12.8584L80.8193 11.4932H79.3672C78.9682 11.479 79.0462 11.3794 79.1641 10.8096C79.2198 10.5402 79.2652 10.3108 79.2656 10.2979C79.2656 10.287 79.8846 10.2783 80.6406 10.2783H82.0156V13.6689L81.8242 13.7871C81.535 13.9661 81.0285 14.1516 80.4629 14.2842C80.0429 14.3826 79.8194 14.4023 79.1895 14.4004C78.5057 14.3983 78.3782 14.3842 77.9697 14.2598C76.2632 13.74 75.2602 12.473 75.1582 10.708C75.0769 9.30001 75.6818 8.06071 76.8271 7.28711C77.1662 7.05819 77.8566 6.76878 78.2549 6.68848C78.4051 6.65816 78.5739 6.62223 78.6299 6.60938C78.6872 6.59654 79.0646 6.59481 79.4697 6.60547ZM31.3779 6.70801L31.4033 9.24023C31.4284 11.7296 31.4307 11.7766 31.5449 12.0576C31.7967 12.6768 32.1165 12.9462 32.7734 13.0938C33.5885 13.2768 34.4393 12.927 34.7803 12.2686C34.9768 11.8889 34.9867 11.7677 35.0156 9.21484L35.0439 6.70801H36.4189V9.21484C36.4189 11.6671 36.4163 11.7298 36.3037 12.1162C36.1425 12.669 35.9338 13.0543 35.6035 13.4092C35.2222 13.8187 34.8685 14.042 34.2979 14.2344C33.8755 14.3767 33.7556 14.395 33.2363 14.3975C32.6023 14.4004 32.2486 14.3269 31.6836 14.0752C31.0881 13.8099 30.5669 13.2692 30.2549 12.5908C30.0158 12.0709 29.9835 11.6579 29.9795 9.11035C29.9775 7.81354 29.9918 6.73562 30.0117 6.71582C30.0318 6.69598 30.3474 6.68664 30.7129 6.69434L31.3779 6.70801ZM65.9512 6.63574L66.7148 7.46973C67.1349 7.92848 67.5706 8.40308 67.6826 8.52344C67.7958 8.64508 68.4679 9.37307 69.1777 10.1426C69.8848 10.9092 70.4755 11.5375 70.4951 11.5439C70.5089 11.5439 70.5124 10.4558 70.502 9.12598L70.4824 6.70801H71.8574V14.3545L71.5947 14.3691C71.3629 14.3825 71.316 14.3672 71.1963 14.2422C71.1216 14.1643 70.5525 13.5434 69.9316 12.8623C69.3109 12.1813 68.6424 11.4488 68.4463 11.2344C68.2503 11.0201 67.7918 10.5136 67.4277 10.1094C67.0643 9.70576 66.7494 9.37429 66.7275 9.37109C66.7065 9.36882 66.6895 10.4716 66.6895 11.8223V14.2783H65.3145V6.63184L65.9512 6.63574ZM40.3779 6.63281L40.6953 6.63379L41.2812 7.27637C41.6033 7.62978 42.302 8.3868 42.834 8.95898C43.3661 9.53131 44.03 10.2504 44.3086 10.5566C44.5871 10.8628 44.9155 11.2155 45.0381 11.3408L45.2607 11.5693L45.2275 6.70801H46.6025V14.3545H46.0449L43.8887 12C42.7025 10.705 41.6649 9.56561 41.583 9.46875L41.4336 9.29297V14.2783H40.0596V6.63184L40.3779 6.63281ZM24.6357 6.68262C26.6165 6.68262 26.7642 6.68902 26.7891 6.77148C26.8284 6.90258 26.9734 7.75756 26.9736 7.86035C26.9736 7.94256 26.8637 7.94922 25.4199 7.94922H23.8672V10.0244H26.5146V11.291H23.8672V14.2783H22.4414V10.5146C22.4414 8.44839 22.4569 6.74166 22.4756 6.7168C22.4942 6.69822 23.4663 6.68262 24.6357 6.68262ZM52.0254 6.69629C53.4837 6.71654 53.6656 6.72924 54.0322 6.83105C55.2039 7.15633 55.9801 7.76767 56.4795 8.75879C56.7664 9.32814 56.8706 9.80142 56.8662 10.5205C56.8617 11.2428 56.759 11.6981 56.4736 12.2646C56.084 13.0381 55.2634 13.7708 54.5059 14.0215C53.8115 14.2513 53.5541 14.2764 51.9102 14.2773L50.3447 14.2783V10.5146C50.3447 8.45245 50.3619 6.74661 50.3828 6.71289C50.4038 6.69203 51.1432 6.68409 52.0254 6.69629ZM60.8721 6.69434L61.5723 6.70801L61.585 10.4932L61.5986 14.2783H60.1719V6.67969L60.8721 6.69434ZM115.716 13.1963L116.405 13.1943C117.677 13.1904 118.181 12.9357 118.262 12.2578C118.356 11.4721 117.879 11.1603 116.583 11.1602H115.716V13.1963ZM51.7705 13.0127H52.5479C53.4429 13.0127 53.8243 12.9336 54.2949 12.6523C54.8426 12.3248 55.1501 11.8813 55.3389 11.1475C55.4571 10.6875 55.4606 10.4915 55.3574 9.98438C55.1557 8.99336 54.6278 8.38414 53.7285 8.10156C53.451 8.01438 53.2 7.98363 52.5723 7.96191L51.7705 7.93457V13.0127ZM100.588 10.2754H101.253C102.428 10.2754 102.905 9.93699 102.898 9.10742C102.895 8.64866 102.754 8.37497 102.406 8.14648C102.199 8.01036 101.986 7.97505 101.366 7.97461L100.588 7.97363V10.2754ZM115.716 9.9209H116.254C117.44 9.9209 117.94 9.61531 117.94 8.88867C117.94 8.12953 117.558 7.88663 116.36 7.88574H115.716V9.9209ZM7.55859 0C7.58997 0 8.05414 0.440642 8.58984 0.979492L9.56445 1.95996L8.55273 2.97168L7.54004 3.9834L6.53516 2.98047L5.5293 1.97656L6.51562 0.988281C7.05625 0.446651 7.52428 0.00316502 7.55859 0ZM3.10449 0.646484C3.13479 0.646484 3.15917 1.36423 3.15918 2.24219V3.83887L2.33398 3.01562L1.50781 2.19238L2.27832 1.41895C2.70186 0.994119 3.07367 0.647039 3.10449 0.646484ZM12.0107 0.646484C12.0608 0.646484 12.4403 0.985709 12.8535 1.40039L13.6045 2.1543L12.8174 2.94336C12.3843 3.37779 12.0049 3.7334 11.9746 3.7334C11.9446 3.72516 11.9199 3.03349 11.9199 2.18945C11.9199 0.992838 11.9403 0.647563 12.0107 0.646484Z" fill="black"/>
</svg>
