<svg width="17" height="108" viewBox="0 0 17 108" fill="none" xmlns="http://www.w3.org/2000/svg">
<path d="M8.2115 0.160729L8.31119 5.40784C8.31382 5.55345 8.19838 5.67413 8.05212 5.67676C7.90651 5.67938 7.78583 5.56393 7.7832 5.41767C7.7832 5.41439 7.7832 5.41046 7.7832 5.40784L7.8829 0.160729C7.88487 0.0702162 7.95964 -0.00192835 8.05015 3.93123e-05C8.13869 0.00135109 8.20953 0.0728398 8.2115 0.160729Z" fill="black"/>
<path d="M8.50119 16.3001L8.67893 27.1925C8.68484 27.5414 8.40608 27.8287 8.05715 27.8346C7.70822 27.8405 7.42094 27.5617 7.41504 27.2128C7.41504 27.2069 7.41504 27.1984 7.41504 27.1925L7.59278 16.3001C7.59672 16.0496 7.80332 15.8495 8.05453 15.8535C8.30049 15.8574 8.49725 16.0561 8.50119 16.3001Z" fill="black"/>
<path d="M9.13725 35.8696L9.2763 46.7619C9.28482 47.4408 8.74175 47.9976 8.06356 48.0061C7.38537 48.0147 6.82786 47.4716 6.81934 46.7934C6.81934 46.7849 6.81934 46.7705 6.81934 46.7619L6.95838 35.8696C6.96625 35.2675 7.46014 34.786 8.06225 34.7939C8.65386 34.8011 9.12938 35.2813 9.13725 35.8696Z" fill="black"/>
<path d="M9.74317 56.439C9.76088 58.2545 9.75236 60.07 9.74908 61.8855C9.75301 63.701 9.71891 65.5165 9.70382 67.3313C9.69595 68.2456 8.94824 68.9809 8.03393 68.9731C7.12946 68.9652 6.4001 68.2319 6.39223 67.3313C6.37715 65.5158 6.34304 63.7003 6.34698 61.8855C6.34304 60.07 6.33517 58.2545 6.35288 56.439C6.36206 55.5024 7.1288 54.7507 8.06475 54.7599C8.9889 54.7684 9.73399 55.5181 9.74317 56.439Z" fill="black"/>
<path d="M9.5016 78.2236C9.39665 81.8546 9.31139 85.485 9.16381 89.116C9.13889 89.7326 8.61877 90.212 8.00223 90.1871C7.41783 90.1635 6.95609 89.6899 6.93117 89.116C6.78425 85.485 6.69832 81.8546 6.59338 78.2236C6.57042 77.4208 7.20204 76.7506 8.00551 76.7276C8.80897 76.7046 9.47864 77.3362 9.5016 78.1397C9.50225 78.1659 9.50225 78.1974 9.5016 78.2236Z" fill="black"/>
<path d="M8.67646 100.008C8.58726 101.758 8.47773 103.506 8.36426 105.256C8.35311 105.43 8.20225 105.562 8.02779 105.551C7.8671 105.541 7.74247 105.412 7.73198 105.256C7.61851 103.506 7.50832 101.758 7.41978 100.008C7.40207 99.6614 7.66902 99.3656 8.01598 99.3479C8.36295 99.3302 8.65875 99.5971 8.67646 99.9441C8.67712 99.9658 8.67712 99.9874 8.67646 100.008Z" fill="black"/>
<path d="M0 98.7353L1.44164 97.3933L8.04579 104.5L14.6519 97.3933L16.0929 98.7353L8.04579 107.389L0 98.7353Z" fill="black"/>
</svg>
