<svg width="101" height="94" viewBox="0 0 101 94" fill="none" xmlns="http://www.w3.org/2000/svg">
<path fill-rule="evenodd" clip-rule="evenodd" d="M47.5333 3.27005L44.6486 6.16046L47.5896 9.09603L50.5308 12.0316L53.4907 9.07167L56.4507 6.11174L53.601 3.24569C52.0339 1.66933 50.6766 0.379639 50.5848 0.379639C50.4932 0.379639 49.1202 1.68025 47.5333 3.27005ZM35.1419 4.53076L32.8878 6.79197L35.303 9.20019L37.7181 11.6084V6.93919C37.7181 4.37094 37.6457 2.26976 37.557 2.26976C37.4684 2.26976 36.3816 3.28727 35.1419 4.53076ZM63.3397 6.78504C63.3397 9.26845 63.4122 11.3003 63.5008 11.3003C63.5894 11.3003 64.6983 10.2608 65.9649 8.99018L68.2677 6.68024L66.0699 4.4749C64.8613 3.26207 63.7524 2.26976 63.606 2.26976C63.3992 2.26976 63.3397 3.27887 63.3397 6.78504ZM28.4775 17.8786V22.3565L30.0898 23.969C30.9767 24.8556 31.7327 25.5812 31.7699 25.5812C31.8073 25.5812 31.8378 23.6439 31.8378 21.276V16.9707H32.9928H34.1479V30.2811V43.5915L35.8534 45.2971C36.7915 46.235 37.5948 47.0026 37.6385 47.0026C37.6824 47.0026 37.7181 39.4421 37.7181 30.2015V13.4005H33.0978H28.4775V17.8786ZM40.0283 23.6695V33.9383L41.6178 35.4827C42.4921 36.332 43.2954 37.0584 43.403 37.0969C43.5218 37.1395 43.5985 33.2102 43.5985 27.0687V16.9707H44.7536H45.9086V37.7147V58.4588L47.4363 59.9761C48.2763 60.8107 49.0796 61.4935 49.2214 61.4935C49.5257 61.4935 49.5585 52.3491 49.3394 28.5561L49.1998 13.4005H44.6141H40.0283V23.6695ZM51.789 37.5997V61.7986L53.4691 60.1284L55.1492 58.4582V42.4736C55.1492 33.6823 55.2116 24.3474 55.2878 21.73L55.4262 16.9707H56.4429H57.4594V27.0513C57.4594 34.5162 57.5222 37.132 57.7013 37.132C57.8342 37.132 58.6848 36.3669 59.5914 35.4319L61.2396 33.7318V23.8984C61.2396 18.4899 61.1823 13.9154 61.1121 13.7327C61.0012 13.4437 60.3857 13.4005 56.3868 13.4005H51.789V37.5997ZM63.4838 13.5363C63.2834 13.7367 63.3017 47.0026 63.5021 47.0026C63.5915 47.0026 64.3948 46.2682 65.2872 45.3703L66.91 43.7381V30.3544V16.9707H67.96H69.0101V21.381C69.0101 23.8066 69.0832 25.7912 69.1724 25.7912C69.2619 25.7912 70.0671 25.0547 70.962 24.1546L72.5889 22.5182L72.532 18.0117L72.4753 13.5055L68.0516 13.449C65.6186 13.4179 63.563 13.4572 63.4838 13.5363Z" fill="#F7F6F1"/>
<path fill-rule="evenodd" clip-rule="evenodd" d="M82.0734 73.374C82.0064 73.3894 81.8045 73.4316 81.6248 73.4679C81.1484 73.5639 80.3235 73.9099 79.9181 74.1836C78.548 75.1089 77.825 76.5913 77.9224 78.2755C78.0443 80.3862 79.2431 81.9006 81.284 82.5222C81.7729 82.6711 81.925 82.6887 82.7432 82.6912C83.4966 82.6935 83.7633 82.6689 84.2655 82.5513C84.9422 82.3928 85.5485 82.1719 85.8944 81.9577L86.1227 81.8164V79.7885V77.7607H84.4786C83.5744 77.7607 82.8345 77.7713 82.8345 77.7844C82.8345 77.7973 82.7797 78.0728 82.7127 78.3966C82.5248 79.305 82.4215 79.2141 83.6414 79.2139L84.6918 79.2139L84.6733 80.03L84.6547 80.8462L84.2676 80.9651C83.1653 81.3037 81.989 81.2428 81.1771 80.8051C80.5949 80.4912 79.9754 79.7225 79.783 79.0751C79.3233 77.5282 79.9819 75.8344 81.2832 75.2168C81.917 74.9159 82.3478 74.8345 83.1085 74.8716C83.9981 74.9151 84.8005 75.1778 85.5029 75.6557C85.6475 75.7541 85.7806 75.8201 85.7985 75.8023C85.8315 75.7695 85.7204 74.4162 85.66 74.1151C85.632 73.9753 85.5566 73.9243 85.1441 73.7661C84.3314 73.4544 84.0169 73.394 83.0781 73.3692C82.5925 73.3564 82.1403 73.3585 82.0734 73.374ZM35.9469 77.9727V82.5446H36.769H37.591V79.5636V76.5826L37.769 76.7932C37.8669 76.909 39.1077 78.2709 40.5262 79.8196L43.1054 82.6354H43.4385H43.7717V78.0635V73.4916H42.9496H42.1276L42.1474 76.3983L42.1673 79.3049L41.9007 79.0324C41.754 78.8825 41.3615 78.4603 41.0283 78.094C40.6952 77.7278 39.9019 76.8682 39.2656 76.1837C38.6292 75.4993 37.7935 74.5935 37.4083 74.1709L36.7081 73.4024L36.3275 73.4016L35.9469 73.4008V77.9727ZM66.1498 77.9727V82.5446H66.9719H67.794V79.6077C67.794 77.9924 67.8145 76.673 67.8396 76.6757C67.8648 76.6784 68.2415 77.0762 68.6769 77.5597C69.1123 78.0431 69.6603 78.6484 69.8948 78.9047C70.1292 79.161 70.9285 80.0371 71.6709 80.8517C72.4134 81.6662 73.094 82.4089 73.1833 82.5021C73.3265 82.6516 73.3829 82.6695 73.6601 82.6535L73.9746 82.6354V78.0635V73.4916H73.1525H72.3305L72.3531 76.3831C72.3656 77.9734 72.3622 79.2746 72.3457 79.2746C72.3292 79.2746 71.6203 78.5207 70.7703 77.5992C69.9203 76.6777 69.1153 75.806 68.9814 75.662C68.8474 75.5181 68.3268 74.9515 67.8244 74.4029L66.911 73.4053L66.5304 73.4031L66.1498 73.4008V77.9727ZM14.9185 73.5017C14.8962 73.5239 14.8779 75.5676 14.8779 78.0433V82.5446H15.7304H16.5829V80.7582V78.9718H18.1662H19.7494V78.2149V77.458H18.1662H16.5829V76.2166V74.9752H18.4402C20.1684 74.9752 20.2974 74.9678 20.2972 74.8693C20.297 74.7463 20.1244 73.7241 20.0774 73.5673C20.0478 73.4686 19.8718 73.4614 17.5024 73.4614C16.1036 73.4614 14.9408 73.4795 14.9185 73.5017ZM23.9313 73.5011C23.9074 73.5248 23.8899 74.8131 23.8923 76.364C23.897 79.411 23.9361 79.9044 24.222 80.5262C24.5952 81.3376 25.2177 81.985 25.93 82.3024C26.6058 82.6035 27.029 82.6914 27.7872 82.6878C28.4084 82.6849 28.5518 82.6628 29.0572 82.4925C29.7397 82.2624 30.162 81.9953 30.6179 81.5056C31.0131 81.0811 31.2627 80.6201 31.4554 79.9588C31.5901 79.4967 31.5931 79.422 31.5931 76.4891V73.4916H30.771H29.9489L29.915 76.4891C29.8804 79.5424 29.8694 79.687 29.6343 80.1411C29.2266 80.9288 28.2086 81.3475 27.2337 81.1286C26.448 80.9521 26.0657 80.6295 25.7645 79.8889C25.6279 79.5528 25.6251 79.4968 25.5951 76.5194L25.5647 73.4916L24.7696 73.4748C24.3324 73.4656 23.9551 73.4774 23.9313 73.5011ZM48.2929 73.4967C48.2678 73.5217 48.2473 75.5676 48.2473 78.0433V82.5446L50.1198 82.5435C52.0862 82.5424 52.3933 82.5121 53.2241 82.2371C54.1301 81.9373 55.1112 81.0615 55.577 80.1365C55.9183 79.459 56.0406 78.915 56.046 78.0512C56.0513 77.191 55.9272 76.6251 55.5841 75.9441C54.9868 74.7587 54.0585 74.0274 52.6571 73.6384C52.2186 73.5166 52.0012 73.5021 50.2567 73.4779C49.2017 73.4633 48.318 73.4718 48.2929 73.4967ZM59.9996 78.0013V82.5446H60.8525H61.7054L61.6898 78.0181L61.6742 73.4916L60.8369 73.4748L59.9996 73.458V78.0013ZM49.9523 77.9944V81.0307H50.8823C51.9526 81.0307 52.4081 80.9368 52.971 80.6005C53.6262 80.2087 53.9941 79.6784 54.2199 78.8006C54.3614 78.2506 54.365 78.0165 54.2416 77.41C54.0003 76.2247 53.37 75.4956 52.2945 75.1576C51.9624 75.0533 51.6623 75.0172 50.9114 74.9912L49.9523 74.958V77.9944ZM37.1648 88.3611V88.8488L37.9869 88.8304L38.8091 88.812L38.809 91.0374L38.8089 93.2628H39.3265H39.8441V91.0525V88.8423H40.6661H41.4882V88.3578V87.8734H39.3265H37.1648V88.3611ZM43.8478 87.907C43.8226 87.9329 43.8021 89.1485 43.8021 90.6085V93.2628H44.3182H44.8342L44.851 92.2881L44.8677 91.3135L45.1914 91.3028L45.5152 91.2922L46.1232 92.134C46.4577 92.597 46.7778 93.0395 46.8347 93.1174C46.9313 93.2497 46.9791 93.2591 47.5651 93.2609L48.1921 93.2628L48.0138 93.0357C47.9156 92.9108 47.5461 92.4215 47.1924 91.9484L46.5495 91.0882L46.7525 90.9635C47.1565 90.7152 47.5166 90.0709 47.5166 89.5965C47.5166 89.2233 47.3095 88.7165 47.0473 88.448C46.9247 88.3225 46.6722 88.1505 46.4863 88.0659C46.1718 87.9227 46.0691 87.9101 45.0208 87.8859C44.4007 87.8716 43.8729 87.8811 43.8478 87.907ZM50.2974 87.9138C50.275 87.9359 50.2568 89.1496 50.2568 90.6108V93.2675L50.7758 93.25L51.2949 93.2325L51.2941 90.6135C51.2937 89.173 51.293 87.9672 51.2926 87.9339C51.2919 87.8668 50.3635 87.848 50.2974 87.9138ZM54.1387 87.9075C54.1135 87.9332 54.093 89.1485 54.093 90.6085V93.2628H55.3621C56.7455 93.2628 57.0406 93.2153 57.4131 92.9327C57.5281 92.8455 57.697 92.6471 57.7886 92.4918C57.9263 92.2581 57.9554 92.1356 57.9574 91.7823C57.9594 91.4217 57.9334 91.3107 57.7901 91.0684C57.6969 90.9106 57.5273 90.7185 57.4135 90.6415C57.2203 90.511 57.214 90.4968 57.3207 90.4305C57.4999 90.3193 57.7423 89.8595 57.785 89.5497C57.8467 89.1019 57.7132 88.7415 57.3541 88.3865C57.1805 88.2148 56.9401 88.0469 56.8028 88.0013C56.531 87.9111 54.2151 87.8297 54.1387 87.9075ZM60.5274 87.9138C60.5051 87.9359 60.4868 89.149 60.4868 90.6094V93.2648L62.113 93.2486L63.7391 93.2325L63.7807 93.0205C63.8035 92.904 63.8402 92.7064 63.8622 92.5815L63.9023 92.3544H62.7121H61.522V91.6898V91.0253L62.5115 91.0086L63.501 90.992L63.519 90.5847L63.5369 90.1775L62.5447 90.1608L61.5524 90.1442L61.5351 89.4946L61.5179 88.8449L62.6616 88.8285L63.8055 88.812L63.7876 88.6606C63.7778 88.5773 63.7416 88.3662 63.7072 88.1913L63.6446 87.8734H62.1063C61.2602 87.8734 60.5497 87.8915 60.5274 87.9138ZM55.1891 89.4781V90.1745H55.5579C56.3696 90.1745 56.7114 89.9651 56.7114 89.4678C56.7114 88.9484 56.4503 88.7827 55.6306 88.7821L55.1891 88.7817V89.4781ZM44.8373 89.6295V90.4167H45.2928C46.0969 90.4167 46.4231 90.1851 46.4184 89.6174C46.4158 89.3034 46.3199 89.1164 46.0815 88.9601C45.9394 88.867 45.7942 88.843 45.3701 88.8427L44.8373 88.8423V89.6295ZM55.1891 91.7186V92.415L55.661 92.4135C56.5311 92.4109 56.876 92.2371 56.9315 91.7733C56.9959 91.2356 56.6699 91.0225 55.7828 91.0224L55.1891 91.0222V91.7186Z" fill="#F7F6F1"/>
</svg>
